<?xml version="1.0" standalone="no"?>
<!DOCTYPE svg PUBLIC "-//W3C//DTD SVG 20010904//EN"
 "http://www.w3.org/TR/2001/REC-SVG-20010904/DTD/svg10.dtd">
<svg version="1.0" xmlns="http://www.w3.org/2000/svg"
 width="128.000000pt" height="128.000000pt" viewBox="0 0 128.000000 128.000000"
 preserveAspectRatio="xMidYMid meet">

<g transform="translate(0.000000,128.000000) scale(0.100000,-0.100000)"
fill="#1a4f6e" stroke="none">
<path d="M565 1269 c-33 -5 -91 -24 -130 -43 -293 -144 -357 -526 -126 -756
295 -295 801 -83 801 336 0 288 -255 505 -545 463z m258 -56 c80 -38 172 -122
210 -191 96 -177 65 -396 -76 -536 l-52 -51 -6 60 c-11 110 -59 183 -148 225
l-51 24 33 27 c45 37 61 77 55 141 -5 45 -11 57 -46 90 -38 35 -45 38 -102 38
-57 0 -64 -3 -102 -38 -35 -33 -41 -45 -46 -90 -6 -64 10 -104 55 -141 l33
-27 -51 -24 c-89 -42 -137 -115 -148 -225 l-6 -60 -52 51 c-137 137 -171 352
-82 526 28 55 113 143 169 176 85 50 136 63 245 59 88 -2 108 -6 168 -34z"/>
<path d="M253 250 c-45 -27 -66 -64 -65 -115 0 -48 20 -85 60 -112 25 -17 56
-18 392 -18 336 0 367 1 392 18 40 28 60 64 60 113 0 52 -20 87 -65 114 -30
19 -53 20 -387 20 -334 0 -357 -1 -387 -20z m135 -69 c8 -4 12 -17 11 -27 -2
-11 0 -24 4 -30 4 -7 -4 -19 -18 -28 -23 -15 -27 -15 -51 0 -16 11 -22 20 -15
27 5 5 7 16 4 23 -12 31 34 55 65 35z m140 0 c8 -4 12 -17 11 -27 -2 -11 0
-24 4 -30 4 -7 -4 -19 -18 -28 -23 -15 -27 -15 -50 0 -14 9 -22 21 -18 28 4 6
6 19 4 30 -3 20 14 36 39 36 8 0 21 -4 28 -9z m139 1 c6 -4 11 -23 11 -43 0
-48 -27 -66 -63 -43 -14 9 -22 21 -18 28 4 6 6 19 4 30 -4 29 36 47 66 28z
m141 -1 c8 -4 12 -17 11 -27 -2 -11 0 -24 4 -30 4 -7 -4 -19 -18 -28 -23 -15
-27 -15 -50 0 -18 12 -22 20 -15 29 6 7 6 15 -1 22 -7 7 -5 15 6 27 18 18 42
20 63 7z m140 0 c8 -4 12 -17 11 -27 -2 -11 0 -24 4 -30 4 -7 -4 -19 -18 -28
-23 -15 -27 -15 -50 0 -14 9 -22 21 -18 28 4 6 6 19 4 30 -3 20 14 36 39 36 8
0 21 -4 28 -9z"/>
</g>
</svg>
